<svg width="287" height="301" viewBox="0 0 287 301" fill="none" xmlns="http://www.w3.org/2000/svg">
<path d="M133.288 180.786C133.288 184.578 132.634 187.922 131.325 190.784C130.016 193.645 128.225 196.058 125.987 198.024C123.748 199.989 121.165 201.437 118.237 202.402C115.31 203.367 112.244 203.884 109.041 203.884C105.838 203.884 102.739 203.402 99.8455 202.402C96.918 201.437 94.3349 199.954 92.0962 198.024C89.8575 196.058 88.0666 193.645 86.7578 190.784C85.4491 187.922 84.7947 184.578 84.7947 180.786V105.114C84.7947 101.322 85.4491 97.943 86.7578 95.0127C88.0666 92.0823 89.8575 89.6346 92.0962 87.704C94.3349 85.7389 96.918 84.2565 99.8455 83.2223C102.773 82.188 105.838 81.6709 109.041 81.6709C116.171 81.6709 121.991 83.6704 126.538 87.704C131.084 91.7376 133.323 97.5293 133.323 105.114V180.786H133.288ZM119.684 104.597C119.684 101.597 118.685 99.1841 116.653 97.357C114.655 95.5298 112.072 94.599 108.973 94.599C105.873 94.599 103.324 95.5298 101.292 97.357C99.2945 99.1841 98.2612 101.597 98.2612 104.597V181.303C98.2612 184.303 99.26 186.716 101.292 188.543C103.29 190.37 105.873 191.301 108.973 191.301C112.072 191.301 114.621 190.37 116.653 188.543C118.651 186.716 119.684 184.303 119.684 181.303V104.597Z" fill="white"/>
<path d="M165.663 171.719C165.663 174.064 164.836 175.856 163.149 177.097C161.496 178.339 159.567 178.959 157.397 178.959C156.295 178.959 155.262 178.787 154.263 178.476C153.264 178.166 152.369 177.718 151.611 177.097C150.819 176.511 150.233 175.753 149.751 174.857C149.303 173.96 149.062 172.926 149.062 171.719V149.724C149.062 148.518 149.303 147.484 149.751 146.587C150.199 145.691 150.819 144.967 151.611 144.346C152.403 143.76 153.264 143.278 154.263 142.967C155.262 142.657 156.329 142.485 157.397 142.485C159.567 142.485 161.496 143.105 163.149 144.346C164.802 145.587 165.663 147.38 165.663 149.724V171.719ZM160.325 149.931C160.325 149.173 160.049 148.552 159.498 148.035C158.947 147.518 158.258 147.242 157.397 147.242C156.467 147.242 155.744 147.518 155.193 148.035C154.642 148.552 154.366 149.173 154.366 149.931V171.478C154.366 172.271 154.642 172.926 155.193 173.443C155.744 173.96 156.467 174.236 157.397 174.236C158.258 174.236 158.947 173.96 159.498 173.443C160.049 172.926 160.325 172.271 160.325 171.478V149.931ZM161.53 204.126H157.156L184.192 141.14H188.567L161.53 204.126ZM196.075 195.783C196.075 198.127 195.248 199.92 193.561 201.161C191.907 202.402 189.979 203.023 187.774 203.023C186.672 203.023 185.639 202.85 184.64 202.54C183.641 202.23 182.746 201.747 181.954 201.161C181.196 200.575 180.576 199.816 180.094 198.92C179.646 198.024 179.405 196.989 179.405 195.783V173.788C179.405 172.581 179.646 171.547 180.094 170.651C180.542 169.754 181.162 168.996 181.954 168.41C182.746 167.824 183.607 167.341 184.64 167.031C185.639 166.72 186.707 166.548 187.774 166.548C189.944 166.548 191.873 167.169 193.561 168.41C195.214 169.651 196.075 171.444 196.075 173.788V195.783ZM190.736 173.96C190.736 173.202 190.461 172.581 189.91 172.064C189.359 171.547 188.67 171.271 187.809 171.271C186.879 171.271 186.156 171.547 185.605 172.064C185.054 172.581 184.778 173.202 184.778 173.96V195.507C184.778 196.3 185.054 196.989 185.605 197.507C186.156 198.024 186.879 198.299 187.809 198.299C188.67 198.299 189.359 198.024 189.91 197.507C190.461 196.989 190.736 196.334 190.736 195.507V173.96Z" fill="white"/>
<path d="M158.981 132.866L157.673 126.454H151.267L149.992 132.866H146.858L152.989 104.08H156.054L162.253 132.866H159.016H158.981ZM154.366 109.975L153.161 116.663L151.783 123.42H157.087L155.675 116.594L154.504 109.975H154.332H154.366Z" fill="white"/>
<path d="M162.839 131.142C163.424 130.763 163.907 130.384 164.251 130.039C164.63 129.694 164.905 129.281 165.146 128.833C165.353 128.384 165.525 127.833 165.594 127.143C165.663 126.488 165.732 125.661 165.732 124.661V112.457H176.546V132.901H173.275V115.353H168.694V124.799C168.694 126.109 168.625 127.212 168.453 128.143C168.315 129.074 168.039 129.867 167.695 130.556C167.351 131.246 166.903 131.832 166.317 132.315C165.766 132.797 165.043 133.245 164.216 133.625L162.77 131.177L162.839 131.142Z" fill="white"/>
<path d="M179.157 132.632V112.223H182.429V121.083H183.841C184.186 121.083 184.565 121.083 184.944 121.014C185.322 120.945 185.701 120.841 186.046 120.635C186.39 120.428 186.7 120.117 187.01 119.738C187.286 119.324 187.527 118.807 187.699 118.152L189.283 112.292H192.417L190.799 118.221C190.523 119.221 190.144 120.048 189.696 120.738C189.249 121.427 188.663 121.876 187.94 122.082C188.835 122.289 189.524 122.772 189.938 123.496C190.351 124.22 190.73 125.082 191.005 126.116L192.796 132.735H189.559L188.147 127.116C187.974 126.461 187.768 125.909 187.527 125.495C187.286 125.082 186.976 124.737 186.666 124.53C186.321 124.323 185.977 124.151 185.564 124.082C185.15 124.013 184.737 123.944 184.289 123.944H182.429V132.77H179.157V132.632Z" fill="white"/>
<path d="M195.696 132.866V129.108H199.278V132.866H195.696Z" fill="white"/>
<path d="M13.7765 119.766L14.2243 117.594C14.5687 115.905 15.1198 114.56 15.8086 113.526C16.4974 112.526 17.324 111.768 18.3228 111.251C19.3216 110.768 20.4582 110.492 21.7325 110.458C23.0068 110.423 24.4189 110.595 25.9688 110.906C29.3785 111.63 31.7894 112.871 33.2015 114.664C34.6136 116.456 34.9924 118.801 34.3725 121.765L32.8226 129.074L0 122.179L3.03084 107.769L7.78375 108.768L5.82059 118.077L13.7421 119.766H13.7765ZM29.103 123.006L29.5163 121.076C29.5851 120.835 29.5507 120.593 29.5163 120.386C29.6885 118.973 29.3441 117.973 28.483 117.318C27.622 116.663 26.451 116.18 25.0044 115.87C23.2135 115.491 21.8358 115.525 20.8715 115.939C19.9071 116.353 19.2527 117.387 18.9428 118.938L18.5639 120.766L29.1374 123.006H29.103Z" fill="#F9F9F9"/>
<path d="M38.471 106.734L7.68042 93.3579L13.6043 79.6714L18.0817 81.602L14.2243 90.4965L22.628 94.1508L26.0032 86.394L30.5495 88.359L27.1742 96.1159L36.0601 99.9771L39.9176 91.0826L44.3949 93.0132L38.471 106.7V106.734Z" fill="#F9F9F9"/>
<path d="M42.8795 78.9819C44.1194 79.8093 45.1182 80.1885 45.9104 80.0851C46.7025 79.9817 47.3569 79.6025 47.8735 78.844C48.3901 78.0856 48.459 77.2582 48.0457 76.3963C47.6324 75.5344 46.7025 74.5347 45.1871 73.5004C42.3629 71.5353 40.3997 71.363 39.2632 72.9488L38.0922 74.6036L34.4414 72.0525L35.6468 70.2943C36.2323 69.4669 36.2668 68.605 35.7846 67.7086C35.3024 66.8123 34.4069 65.8815 33.1326 64.9851C32.0649 64.2267 31.0661 63.8819 30.1362 63.9164C29.2407 63.9509 28.5175 64.3646 27.9664 65.1575C27.3809 66.0194 27.2776 66.8468 27.622 67.6742C28.0008 68.5016 28.6208 69.26 29.5851 69.9495L25.7966 73.4315C23.8334 71.8801 22.6969 70.0874 22.3869 68.0879C22.0769 66.0883 22.5935 64.1233 23.9712 62.1582C27.0365 57.7454 31.0317 57.2628 35.9224 60.6758C36.3701 60.986 36.8523 61.3653 37.4033 61.8134C37.9544 62.2616 38.471 62.7787 38.9188 63.3648C39.4009 63.9509 39.7798 64.5714 40.0553 65.2264C40.3309 65.8815 40.4342 66.5365 40.3653 67.226L40.4686 67.2949C41.0541 66.9847 41.6396 66.8123 42.294 66.8123C42.9484 66.8123 43.6028 66.8812 44.2916 67.0881C44.946 67.2949 45.6348 67.5707 46.3237 67.9155C47.0125 68.2602 47.6669 68.6739 48.3213 69.1221C51.1799 71.1216 52.902 73.1557 53.453 75.2242C54.0041 77.2927 53.453 79.4646 51.9376 81.671C50.5255 83.705 48.8379 84.9116 46.8747 85.2908C44.9116 85.67 42.8795 85.1529 40.7786 83.6705L42.8795 78.8785V78.9819Z" fill="#F9F9F9"/>
<path d="M70.0882 60.8826L64.3365 56.6766L59.8591 60.917C60.4791 61.9168 61.1334 62.9166 61.7878 63.9163C62.4422 64.9161 63.0966 65.9159 63.751 66.8812L59.8936 70.5355C56.8627 65.6746 53.8319 60.8136 50.8355 55.9871C47.8391 51.1606 44.8082 46.3342 41.7774 41.4387L45.9792 37.4741L73.9456 57.2282L70.0882 60.8826ZM49.079 45.231C50.4222 47.1271 51.7654 49.0577 53.1086 50.9538C54.4174 52.8844 55.7606 54.8495 57.0694 56.849L60.4102 53.7118L49.2856 45.0586L49.1134 45.231H49.079Z" fill="#F9F9F9"/>
<path d="M75.9777 16.2376L93.2672 45.0241L88.7899 47.7131L74.0145 23.0981L69.6749 25.7182L76.3221 36.8191C77.6997 39.1289 78.8019 41.1284 79.594 42.8177C80.3862 44.507 80.8684 45.9894 81.075 47.3339C81.2816 48.6784 81.2128 49.9195 80.8683 51.0227C80.5239 52.1604 79.9384 53.3325 79.043 54.5736L75.3577 52.2638C75.8399 51.4364 76.1499 50.609 76.2876 49.8506C76.4599 49.0921 76.4599 48.2647 76.2876 47.3684C76.1154 46.472 75.8055 45.5068 75.2544 44.4036C74.7378 43.3004 74.0145 41.9903 73.0846 40.4389L63.1655 23.891L75.9432 16.2031L75.9777 16.2376Z" fill="#F9F9F9"/>
<path d="M100.638 41.6801L90.0986 9.79088L95.0582 8.17056L99.5011 21.6502L100.5 21.3055C101.602 20.9263 102.394 20.3402 102.876 19.4438C103.359 18.582 103.531 17.2374 103.359 15.4792C103.359 15.169 103.255 14.5829 103.186 13.6176C103.083 12.6868 102.98 11.687 102.842 10.6183C102.704 9.54956 102.601 8.54979 102.498 7.61896C102.394 6.68814 102.325 6.06759 102.291 5.7918L106.906 4.2749C107.113 5.99865 107.285 7.72239 107.492 9.41166C107.664 11.1009 107.87 12.7902 108.043 14.4795C108.215 16.1343 108.111 17.5822 107.767 18.7543C107.388 19.961 106.837 20.8573 106.079 21.5123V21.6158C107.423 21.6502 108.525 22.0639 109.489 22.7879C110.454 23.5119 111.349 24.6151 112.21 26.063C113.209 27.7178 114.173 29.3726 115.103 31.0274C116.033 32.6822 116.997 34.3025 117.962 35.9573L113.002 37.5776C112.176 36.1297 111.349 34.6473 110.557 33.1993C109.73 31.7514 108.904 30.3034 108.043 28.8555C107.147 27.2696 106.252 26.2354 105.322 25.7872C104.426 25.339 103.393 25.3046 102.325 25.6493L100.982 26.0975L105.597 40.0253L100.638 41.6456V41.6801Z" fill="#F9F9F9"/>
<path d="M138.902 24.7529C139.212 27.6833 138.764 29.9241 137.628 31.5444C136.491 33.1648 134.494 34.1301 131.704 34.4058C128.914 34.6816 126.779 34.199 125.367 32.889C123.955 31.6134 123.093 29.6138 122.818 26.9248L121.096 10.1355C120.958 8.8255 120.993 7.61888 121.165 6.48121C121.371 5.37801 121.716 4.37824 122.301 3.51637C122.887 2.6545 123.645 1.965 124.609 1.44788C125.573 0.930755 126.813 0.551532 128.26 0.413632C129.775 0.241258 131.084 0.310208 132.186 0.620482C133.288 0.930755 134.149 1.4134 134.838 2.1029C135.527 2.7924 136.078 3.68874 136.457 4.75747C136.836 5.82619 137.111 7.03281 137.249 8.4118L138.937 24.7184L138.902 24.7529ZM132.014 8.58418C131.91 7.65335 131.635 6.86043 131.153 6.13646C130.671 5.41249 129.878 5.13669 128.776 5.27459C128.156 5.34354 127.674 5.51591 127.33 5.82619C126.985 6.13646 126.71 6.51568 126.538 6.92938C126.365 7.34308 126.262 7.82573 126.228 8.30838C126.228 8.8255 126.228 9.27367 126.228 9.68737L127.95 26.4766C128.053 27.3385 128.329 28.097 128.845 28.752C129.362 29.407 130.12 29.6483 131.187 29.5449C132.255 29.4415 132.944 28.9933 133.323 28.2348C133.701 27.4764 133.839 26.5801 133.736 25.5458L131.979 8.5497L132.014 8.58418Z" fill="#F9F9F9"/>
<path d="M155.778 5.37808L152.954 33.9577L147.788 33.4406L151.06 0L165.491 1.41347L165.009 6.27442L155.744 5.37808H155.778Z" fill="#F9F9F9"/>
<path d="M186.672 32.751C185.811 35.5434 184.537 37.474 182.815 38.5083C181.127 39.5425 178.923 39.6459 176.237 38.8185C173.55 37.9911 171.794 36.6811 171.001 34.9229C170.209 33.1647 170.209 31.0272 171.001 28.4416L176.03 12.3074C176.409 11.0318 176.925 9.92861 177.545 8.99779C178.165 8.03249 178.889 7.27405 179.75 6.72245C180.611 6.17085 181.575 5.8261 182.711 5.72268C183.848 5.61925 185.088 5.79163 186.466 6.20533C187.947 6.6535 189.118 7.23957 189.979 7.92907C190.84 8.61857 191.46 9.44596 191.838 10.3423C192.217 11.2731 192.355 12.2729 192.286 13.4106C192.217 14.5482 191.976 15.7549 191.563 17.0649L186.707 32.751H186.672ZM186.672 15.1688C186.948 14.2724 187.017 13.4106 186.844 12.5832C186.672 11.7558 186.052 11.1697 184.985 10.825C184.399 10.6526 183.883 10.6181 183.435 10.756C182.987 10.8939 182.608 11.1352 182.298 11.4455C181.988 11.7558 181.713 12.1695 181.472 12.6177C181.231 13.0658 181.058 13.4795 180.955 13.8932L175.927 30.0275C175.685 30.8549 175.651 31.6822 175.858 32.4407C176.064 33.2336 176.684 33.7852 177.683 34.0955C178.682 34.4058 179.508 34.3023 180.163 33.7163C180.817 33.1647 181.299 32.4062 181.575 31.4064L186.638 15.0998L186.672 15.1688Z" fill="#F9F9F9"/>
<path d="M222.491 23.2359L205.822 52.3672L201.31 49.7816L215.569 24.8562L211.16 22.3396L204.72 33.5784C203.376 35.9227 202.171 37.8533 201.069 39.3357C200.001 40.8181 198.899 41.9903 197.831 42.8177C196.764 43.6451 195.661 44.1966 194.49 44.438C193.354 44.6793 192.011 44.7483 190.53 44.5759L190.736 40.232C191.701 40.232 192.562 40.0941 193.319 39.8873C194.077 39.646 194.8 39.2323 195.489 38.6807C196.178 38.1291 196.867 37.3362 197.59 36.3364C198.279 35.3366 199.071 34.061 199.967 32.5097L209.541 15.7549L222.457 23.167L222.491 23.2359Z" fill="#F9F9F9"/>
<path d="M212.331 57.2281L234.821 32.3027L238.679 35.7847L229.999 45.4032L231.653 46.8856C232.927 48.0577 233.857 49.1954 234.374 50.2986C234.89 51.4018 235.131 52.505 235.062 53.6082C234.993 54.7114 234.649 55.8146 234.029 56.9523C233.409 58.0899 232.583 59.2276 231.515 60.3997C229.173 62.9854 226.865 64.4678 224.627 64.7781C222.388 65.0883 220.149 64.2609 217.911 62.2269L212.366 57.1936L212.331 57.2281ZM219.46 57.0902L220.907 58.4002C222.078 59.4689 223.249 59.8137 224.386 59.4345C225.522 59.0552 226.624 58.2623 227.692 57.0902C228.932 55.7112 229.586 54.5045 229.724 53.4703C229.827 52.4016 229.311 51.3673 228.105 50.2986L226.728 49.0575L219.46 57.1246V57.0902Z" fill="#F9F9F9"/>
<path d="M235.407 82.3606L247.289 73.7764L243.811 68.9154L231.928 77.4997L228.897 73.2593L256.141 53.6431L259.171 57.8835L247.771 66.0885L251.25 70.9494L262.65 62.7444L265.681 66.9848L238.438 86.601L235.407 82.3606Z" fill="#F9F9F9"/>
<path d="M247.186 104.666L253.075 100.701L250.63 95.0472C249.493 95.2885 248.322 95.5643 247.151 95.8401C245.98 96.1159 244.844 96.3917 243.707 96.6675L241.606 91.8065C247.22 90.5999 252.8 89.3933 258.345 88.2211C263.89 87.049 269.469 85.8424 275.083 84.6357L277.391 89.9449L249.321 109.561L247.22 104.7L247.186 104.666ZM269.056 90.2207C266.817 90.8412 264.544 91.4618 262.306 92.0478C260.067 92.6339 257.759 93.22 255.417 93.7716L257.243 97.9775L269.159 90.4275L269.056 90.2207Z" fill="#F9F9F9"/>
<path d="M250.699 114.215L261.513 114.008C262.65 114.008 263.718 114.146 264.716 114.457C265.715 114.767 266.542 115.284 267.231 116.042C267.575 114.388 268.298 113.181 269.469 112.354C270.64 111.526 272.121 110.94 273.912 110.595C277.15 109.94 279.767 110.251 281.73 111.492C283.694 112.733 284.968 114.698 285.485 117.421L286.966 124.937L254.04 131.418L253.041 126.316L267.093 123.558L266.817 122.248C266.645 121.352 266.129 120.628 265.302 120.007C264.475 119.387 263.132 119.111 261.307 119.145L251.663 119.421L250.664 114.25L250.699 114.215ZM280.835 118.766C280.525 117.215 279.836 116.215 278.803 115.801C277.77 115.387 276.461 115.284 274.946 115.594C273.327 115.905 272.294 116.525 271.846 117.421C271.398 118.318 271.26 119.352 271.501 120.559L271.915 122.593L281.248 120.766L280.869 118.766H280.835Z" fill="#F9F9F9"/>
<path d="M45.1871 257.837L64.3021 236.635L60.3757 233.084L41.2608 254.286L37.4033 250.805L59.8936 225.845L71.5692 236.394L49.079 261.354L45.2215 257.872L45.1871 257.837Z" fill="#F9F9F9"/>
<path d="M83.8992 244.599C86.5512 246.185 88.0666 248.046 88.4799 250.149C88.8932 252.252 88.1699 254.872 86.3445 257.906C85.5524 259.251 84.6914 260.423 83.7614 261.354C82.866 262.319 81.8672 263.009 80.765 263.422C79.6974 263.836 78.5263 263.974 77.2865 263.836C76.0466 263.698 74.6689 263.181 73.1879 262.285L71.3625 261.181L64.7498 272.248L60.2724 269.559L77.4931 240.738L83.8648 244.565L83.8992 244.599ZM79.4907 247.633L73.9112 256.941L75.4955 257.872C76.8732 258.699 78.0786 258.872 79.0774 258.423C80.0762 257.941 81.075 256.941 82.0049 255.355C82.866 253.942 83.2793 252.666 83.2448 251.563C83.2448 250.425 82.5215 249.46 81.1439 248.633L79.4907 247.633Z" fill="#F9F9F9"/>
<path d="M103.6 280.522C102.601 283.28 101.258 285.141 99.5011 286.107C97.7446 287.072 95.5748 287.072 92.8884 286.107C90.202 285.141 88.5488 283.797 87.8255 282.004C87.1022 280.212 87.1711 278.074 88.101 275.523L93.7839 259.596C94.2316 258.354 94.7827 257.286 95.437 256.355C96.0914 255.424 96.8492 254.7 97.7102 254.183C98.5712 253.666 99.57 253.356 100.707 253.321C101.843 253.287 103.083 253.459 104.426 253.976C105.873 254.493 107.009 255.114 107.87 255.838C108.731 256.562 109.317 257.389 109.627 258.354C109.971 259.285 110.075 260.32 109.971 261.457C109.868 262.595 109.558 263.801 109.11 265.112L103.6 280.556V280.522ZM104.323 262.94C104.633 262.078 104.736 261.216 104.598 260.388C104.461 259.561 103.875 258.941 102.808 258.561C102.222 258.354 101.705 258.32 101.258 258.458C100.81 258.596 100.397 258.803 100.087 259.113C99.7422 259.423 99.4667 259.802 99.2256 260.251C98.9845 260.699 98.7779 261.112 98.6401 261.492L92.9573 277.419C92.6817 278.246 92.6129 279.039 92.7851 279.832C92.9573 280.625 93.5428 281.211 94.5416 281.556C95.5404 281.901 96.367 281.832 97.0558 281.28C97.7446 280.729 98.2268 280.005 98.5712 279.039L104.288 262.94H104.323Z" fill="#F9F9F9"/>
<path d="M116.687 292.346L115.861 298.655L111.521 298.069L112.933 287.451L114.965 287.279C115.999 286.451 116.722 285.417 117.204 284.176C117.686 282.969 118.099 281.314 118.444 279.246L121.681 259.078L136.594 261.043L132.84 289.657L134.941 289.933L133.495 300.931L129.155 300.345L129.982 294.036L116.756 292.277L116.687 292.346ZM123.059 279.866C122.749 281.763 122.405 283.383 122.026 284.762C121.647 286.106 121.13 287.21 120.476 288.071L127.64 289.002L130.774 265.215L125.47 264.525L123.059 279.866Z" fill="#F9F9F9"/>
<path d="M152.816 278.039L155.641 260.388L160.497 260.043L155.503 286.417C155.193 288.278 154.78 289.761 154.297 290.864C153.815 291.967 153.264 292.795 152.679 293.381C152.093 293.967 151.439 294.38 150.75 294.587C150.061 294.794 149.338 294.932 148.546 295.035L146.686 295.173L146.41 290.967L147.616 290.898C148.408 290.829 149.062 290.519 149.51 289.968C149.958 289.416 150.337 288.554 150.612 287.416C150.612 287.416 150.681 287.279 150.681 287.106C150.681 286.934 150.715 286.761 150.75 286.589C150.784 286.417 150.819 286.244 150.853 286.072C150.888 285.9 150.922 285.796 150.957 285.727L142.208 261.353L147.271 261.009L152.575 278.074H152.816V278.039Z" fill="#F9F9F9"/>
<path d="M174.17 291.588L165.491 259.148L170.519 257.803L174.17 271.524L175.203 271.248C176.305 270.938 177.166 270.386 177.683 269.524C178.2 268.663 178.441 267.387 178.372 265.594C178.372 265.284 178.337 264.664 178.303 263.733C178.269 262.802 178.234 261.802 178.165 260.733C178.096 259.665 178.027 258.665 177.993 257.734C177.959 256.803 177.924 256.183 177.89 255.872L182.608 254.631C182.711 256.355 182.815 258.079 182.884 259.768C182.953 261.457 183.056 263.147 183.159 264.87C183.228 266.56 183.056 267.973 182.643 269.145C182.195 270.317 181.575 271.214 180.783 271.8V271.903C182.092 272.007 183.194 272.489 184.124 273.282C185.019 274.075 185.88 275.213 186.638 276.695C187.533 278.419 188.394 280.143 189.221 281.832C190.047 283.521 190.909 285.211 191.804 286.9L186.776 288.244C186.052 286.727 185.295 285.245 184.571 283.728C183.848 282.211 183.09 280.729 182.333 279.246C181.54 277.592 180.679 276.523 179.818 276.04C178.923 275.558 177.924 275.454 176.822 275.73L175.479 276.075L179.267 290.244L174.239 291.588H174.17Z" fill="#F9F9F9"/>
<path d="M202.446 245.047L215.362 270.696L217.291 269.731L222.354 279.763L218.462 281.728L215.603 276.04L203.032 282.383L187.947 252.39L192.596 250.046L205.512 275.695L210.712 273.075L197.797 247.426L202.446 245.081V245.047Z" fill="#F9F9F9"/>
<path d="M226.004 243.358L233.616 264.215L229.69 267.352L208.749 241.082L212.71 237.911L225.97 254.562L226.108 254.424L218.324 233.429L222.285 230.257L243.225 256.527L239.23 259.733L226.108 243.289L226.004 243.392V243.358Z" fill="#F9F9F9"/>
<path d="M252.318 247.702L245.326 239.428C244.603 238.531 244.052 237.601 243.638 236.635C243.225 235.67 243.122 234.705 243.294 233.705C241.813 234.498 240.401 234.67 239.023 234.291C237.645 233.912 236.268 233.119 234.856 231.947C232.307 229.844 230.895 227.603 230.619 225.293C230.344 222.983 231.067 220.742 232.824 218.639L237.714 212.744L263.511 234.222L260.17 238.221L249.149 229.051L248.288 230.085C247.702 230.774 247.461 231.636 247.53 232.671C247.599 233.705 248.219 234.911 249.39 236.325L255.693 243.634L252.318 247.667V247.702ZM236.819 221.432C235.82 222.638 235.476 223.811 235.786 224.879C236.096 225.948 236.888 227.017 238.059 227.982C239.333 229.016 240.435 229.464 241.434 229.258C242.433 229.051 243.294 228.465 244.086 227.534L245.395 225.948L238.093 219.88L236.784 221.432H236.819Z" fill="#F9F9F9"/>
<path d="M143.276 249.288C86.379 249.288 40.0898 202.954 40.0898 146.001C40.0898 89.0486 86.379 42.7144 143.276 42.7144C200.173 42.7144 246.462 89.0486 246.462 146.001C246.462 202.954 200.173 249.288 143.276 249.288ZM143.276 46.1618C88.2732 46.1618 43.5339 90.9447 43.5339 146.001C43.5339 201.057 88.2732 245.84 143.276 245.84C198.279 245.84 243.018 201.057 243.018 146.001C243.018 90.9447 198.279 46.1618 143.276 46.1618Z" fill="white"/>
</svg>
